<?xml version="1.0" encoding="utf-8"?>
<!-- Generator: Adobe Illustrator 26.0.2, SVG Export Plug-In . SVG Version: 6.00 Build 0)  -->
<svg version="1.1" id="Layer_1" xmlns="http://www.w3.org/2000/svg" xmlns:xlink="http://www.w3.org/1999/xlink" x="0px" y="0px"
	 viewBox="0 0 1280 323.8" style="enable-background:new 0 0 1280 323.8;" xml:space="preserve">
<style type="text/css">
	.st0{fill:#0000FF;}
</style>
<g>
	<path d="M447.2,323.6c-25.2,0-49.5-9.2-63.9-33.5H375v26.6h-57.3V0H375v115.2h8.3c14.7-25.2,42.2-34.9,67.1-34.9
		c61.9,0,103.8,49.5,103.8,119.3s-46,123.9-107,123.9L447.2,323.6L447.2,323.6z M434.8,272.3c35.3,0,60.5-28.9,60.5-70.3
		s-25.7-70.3-60.5-70.3s-59.6,27.5-59.6,70.3S400.4,272.3,434.8,272.3z M660.2,323.6c-44,0-79.9-26.6-79.9-70.3s39.4-68,87.2-73
		l67.5-6.9v-12.8c0-19.7-16.1-33.5-44.5-33.5s-42.8,11.9-47.7,29.8h-55c5.5-43.7,41.7-76.7,102.8-76.7s97.8,28.4,97.8,84v112
		c0,14.2,1.4,33.9,2.3,39.4v0.9h-55c-0.5-7.8-0.5-15.1-0.5-22.9h-8.3c-14.2,22.9-39,29.8-66.6,29.8L660.2,323.6L660.2,323.6z
		 M675.8,280.5c37.6,0,59.3-28.4,59.3-57.3v-11.5l-50.6,6c-31.2,3.7-46.3,12.8-46.3,33S653.8,280.5,675.8,280.5L675.8,280.5z
		 M926.1,323.6c-57.9,0-99.2-28.9-105.6-74.4h56.5c6.4,20.2,27.5,28.9,49.5,28.9s40.8-9.6,40.8-26.6s-17.4-21.6-41.3-25.7l-24.3-4.1
		c-46-7.8-74.4-27.1-74.4-68.3s39.4-73,94.1-73s88.6,24.8,98.2,68h-55c-6.4-17-23.4-23.8-42.8-23.8s-38.5,10.1-38.5,24.3
		s11.9,19.3,36.7,23.4l24.3,4.1c44.5,7.3,78.5,25.7,78.5,70.3s-40.5,77.2-96.9,77.2L926.1,323.6L926.1,323.6z M1166.6,323.6
		c-70.7,0-117.5-48.3-117.5-122.1s49.5-121.2,118-121.2S1280,133.5,1280,203.8v10.1h-174.8c2.8,38.1,29.4,60.5,61.6,60.5
		s42.8-9.2,50.6-25.2h58.8c-11.9,43.1-54.7,74.4-109.3,74.4L1166.6,323.6L1166.6,323.6z M1223.9,175.9
		c-4.6-30.7-28.9-48.6-57.3-48.6s-55,17.4-60.5,48.6h118H1223.9L1223.9,175.9z"/>
	<path class="st0" d="M13.8,316.8C4.6,316.8,0,312.2,0,303V101c0-9.2,4.6-13.8,13.8-13.8h202c9.2,0,13.8,4.6,13.8,13.8v202
		c0,9.2-4.6,13.8-13.8,13.8L13.8,316.8L13.8,316.8z"/>
</g>
</svg>
