<?xml version="1.0" encoding="utf-8"?>
<!-- Generator: Adobe Illustrator 26.0.2, SVG Export Plug-In . SVG Version: 6.00 Build 0)  -->
<svg version="1.1" id="Layer_1" xmlns="http://www.w3.org/2000/svg" xmlns:xlink="http://www.w3.org/1999/xlink" x="0px" y="0px"
	 viewBox="0 0 646 97" style="enable-background:new 0 0 646 97;" xml:space="preserve">
<style type="text/css">
	.st0{fill:url(#SVGID_1_);}
</style>
<g>
	
		<linearGradient id="SVGID_1_" gradientUnits="userSpaceOnUse" x1="11.3858" y1="-0.5372" x2="99.4791" y2="98.7695" gradientTransform="matrix(1 0 0 -1 0 98)">
		<stop  offset="8.000000e-02" style="stop-color:#9945FF"/>
		<stop  offset="0.3" style="stop-color:#8752F3"/>
		<stop  offset="0.5" style="stop-color:#5497D5"/>
		<stop  offset="0.6" style="stop-color:#43B4CA"/>
		<stop  offset="0.72" style="stop-color:#28E0B9"/>
		<stop  offset="0.97" style="stop-color:#19FB9B"/>
	</linearGradient>
	<path class="st0" d="M109.1,75.9l-17.7,19c-0.4,0.4-0.9,0.7-1.4,1c-0.5,0.2-1.1,0.4-1.6,0.4h-84c-0.4,0-0.8-0.1-1.1-0.3
		c-0.3-0.2-0.6-0.5-0.8-0.9c-0.2-0.4-0.2-0.8-0.1-1.2c0.1-0.4,0.2-0.8,0.5-1.1l17.7-19c0.4-0.4,0.9-0.7,1.4-1
		c0.5-0.2,1.1-0.4,1.6-0.4h84c0.4,0,0.8,0.1,1.1,0.3c0.3,0.2,0.6,0.5,0.8,0.9c0.2,0.4,0.2,0.8,0.1,1.2
		C109.6,75.3,109.4,75.6,109.1,75.9z M91.4,37.7c-0.4-0.4-0.8-0.8-1.4-1c-0.5-0.2-1.1-0.3-1.6-0.4h-84c-0.4,0-0.8,0.1-1.1,0.3
		c-0.3,0.2-0.6,0.5-0.8,0.9c-0.2,0.4-0.2,0.8-0.1,1.2c0.1,0.4,0.2,0.8,0.5,1.1l17.7,19c0.4,0.4,0.8,0.8,1.4,1
		c0.5,0.2,1.1,0.3,1.6,0.4h84c0.4,0,0.8-0.1,1.1-0.3c0.3-0.2,0.6-0.5,0.8-0.9c0.2-0.4,0.2-0.8,0.1-1.2c-0.1-0.4-0.2-0.8-0.5-1.1
		L91.4,37.7z M4.4,24h84c0.6,0,1.1-0.1,1.6-0.4c0.5-0.2,1-0.6,1.4-1l17.7-19c0.3-0.3,0.5-0.7,0.5-1.1s0-0.8-0.1-1.2
		c-0.2-0.4-0.4-0.7-0.8-0.9s-0.7-0.3-1.1-0.3h-84c-0.6,0-1.1,0.1-1.6,0.4c-0.5,0.2-1,0.6-1.4,1l-17.7,19c-0.3,0.3-0.5,0.7-0.5,1.1
		c-0.1,0.4,0,0.8,0.1,1.2c0.2,0.4,0.4,0.7,0.8,0.9C3.6,23.9,4,24,4.4,24z"/>
	<g>
		<path d="M211,40.8h-44.9V25.8h56.6V10.9H166c-3.9,0-7.7,1.6-10.5,4.3c-2.8,2.8-4.3,6.6-4.3,10.5v15.1c0,1.9,0.4,3.9,1.1,5.7
			c0.7,1.8,1.8,3.4,3.2,4.8c2.8,2.8,6.6,4.3,10.5,4.3h44.9v14.9h-58.7v14.9H211c3.9,0,7.7-1.6,10.5-4.3c2.8-2.8,4.3-6.6,4.3-10.5
			V55.6c0-1.9-0.4-3.9-1.1-5.7c-0.7-1.8-1.8-3.4-3.2-4.8s-3-2.5-4.8-3.2C214.8,41.2,212.9,40.8,211,40.8z"/>
		<path d="M297.9,10.9h-45c-3.9,0-7.7,1.6-10.5,4.3c-2.8,2.8-4.3,6.6-4.3,10.5v45c0,3.9,1.6,7.7,4.3,10.5c2.8,2.8,6.6,4.3,10.5,4.3
			h45c1.9,0,3.9-0.4,5.7-1.1c1.8-0.7,3.4-1.8,4.8-3.2c1.4-1.4,2.5-3,3.2-4.8c0.7-1.8,1.1-3.7,1.1-5.7v-45c0-1.9-0.4-3.9-1.1-5.7
			c-0.7-1.8-1.8-3.4-3.2-4.8c-1.4-1.4-3-2.5-4.8-3.2C301.8,11.3,299.8,10.9,297.9,10.9z M297.8,70.6H253V25.8h44.8V70.6z"/>
		<path d="M455.7,10.9h-44c-1.9,0-3.9,0.4-5.7,1.1s-3.4,1.8-4.8,3.2c-1.4,1.4-2.5,3-3.2,4.8c-0.7,1.8-1.1,3.7-1.1,5.7v59.8h14.9V61
			h43.7v24.5h14.9V25.7c0-3.9-1.6-7.7-4.3-10.5C463.3,12.5,459.6,10.9,455.7,10.9z M455.5,46.1h-43.7V25.8h43.7V46.1z"/>
		<path d="M630.5,10.9h-44c-3.9,0-7.7,1.6-10.4,4.4c-2.8,2.8-4.3,6.5-4.3,10.5v59.8h14.9V61h43.7v24.5h14.9V25.7
			c0-1.9-0.4-3.9-1.1-5.7c-0.7-1.8-1.8-3.4-3.2-4.8s-3-2.5-4.8-3.2S632.5,10.9,630.5,10.9z M630.4,46.1h-43.7V25.8h43.7V46.1z"/>
		<path d="M543.5,70.6h-6l-21.3-53.5c-0.7-1.8-2-3.4-3.7-4.5c-1.6-1.1-3.6-1.7-5.6-1.7h-13.3c-2.6,0-5.1,1-7,2.9
			c-1.9,1.9-2.9,4.4-2.9,7v64.8h14.9V25.8h6l21.4,53.5c0.7,1.8,2,3.4,3.7,4.5c1.6,1.1,3.6,1.7,5.6,1.7h13.3c1.3,0,2.6-0.3,3.8-0.8
			s2.3-1.2,3.2-2.1c0.9-0.9,1.6-2,2.1-3.2c0.5-1.2,0.8-2.5,0.8-3.8V10.9h-14.9L543.5,70.6z"/>
		<path d="M340.9,10.9H326v59.8c0,3.9,1.6,7.7,4.3,10.5c2.8,2.8,6.6,4.3,10.5,4.3h44.9V70.6h-44.8V10.9z"/>
	</g>
</g>
</svg>
